<svg version="1.1" id="Layer_1" xmlns="http://www.w3.org/2000/svg" xmlns:xlink="http://www.w3.org/1999/xlink" x="0px" y="0px"
	 width="100%" viewBox="0 0 706 182" enable-background="new 0 0 706 182" xml:space="preserve">
<path fill="transparent" opacity="1.000000" stroke="none" 
	d="
M464.000000,183.000000 
	C309.376709,183.000000 155.253418,183.000000 1.065058,183.000000 
	C1.065058,122.393829 1.065058,61.787579 1.065058,1.090660 
	C236.333313,1.090660 471.666656,1.090660 706.965637,1.090660 
	C706.965637,61.746620 706.965637,122.373322 706.965637,183.000000 
	C626.120850,183.000000 545.310425,183.000000 464.000000,183.000000 
M288.129211,116.250252 
	C288.328003,115.622169 288.472290,114.970337 288.733948,114.369629 
	C291.594177,107.803108 296.091278,104.994942 301.856140,106.151260 
	C306.245514,107.031670 307.947144,110.163368 308.014740,117.774704 
	C308.060577,122.939285 307.647522,128.129745 308.030243,133.264618 
	C308.663391,141.759979 312.759003,148.228348 321.038025,151.077133 
	C329.605103,154.025009 338.361267,154.389252 345.469604,147.791107 
	C352.479340,141.284439 354.354187,132.366364 355.292236,123.152229 
	C348.986359,122.788567 349.001892,122.792961 347.493835,128.122284 
	C347.133240,129.396591 346.748413,130.687607 346.173676,131.873505 
	C344.067841,136.218414 339.920013,138.024658 334.831024,136.865143 
	C330.189758,135.807617 329.680389,132.268005 329.766327,128.363007 
	C329.890930,122.700233 330.260071,117.025230 330.025330,111.376198 
	C329.649780,102.338814 323.804352,95.715126 314.958038,93.991806 
	C311.446960,93.307823 307.850555,93.061890 303.613281,92.531418 
	C312.366608,85.396927 320.740540,78.571693 329.686310,71.280342 
	C320.495789,70.256149 312.860657,70.074089 306.591431,77.732391 
	C301.432281,84.034676 294.816803,89.144775 287.879272,95.697014 
	C287.879272,75.762802 287.879272,57.244743 287.879272,38.473236 
	C279.958832,39.569050 272.571960,40.591038 264.883606,41.654743 
	C264.883606,43.810501 264.883636,45.620022 264.883636,47.429546 
	C264.883606,71.095100 264.893250,94.760674 264.862274,118.426178 
	C264.860168,120.055077 265.071136,121.995445 264.306213,123.260971 
	C259.799957,130.716125 254.079849,136.909271 245.075226,138.753616 
	C232.501068,141.329102 225.578171,136.549210 223.709229,123.765869 
	C221.999466,112.071190 223.139908,100.487236 226.458679,89.172531 
	C227.238846,86.512642 228.592606,83.880859 230.236938,81.643646 
	C233.681854,76.956612 239.214966,77.781372 240.924423,83.337044 
	C241.878418,86.437454 241.595428,89.901855 242.086060,93.169777 
	C242.278183,94.449409 242.713501,96.218674 243.635071,96.773773 
	C248.223007,99.537270 252.619858,97.549789 254.050079,92.341690 
	C256.596283,83.069809 251.132126,73.782173 241.522202,71.047531 
	C227.365234,67.018959 213.043442,72.631073 206.589935,86.201874 
	C202.948990,93.858284 197.086487,94.713005 190.039703,95.662262 
	C189.598969,93.718224 189.253845,92.119659 188.873291,90.529579 
	C185.922150,78.198494 178.818451,71.490097 167.312805,70.158203 
	C153.332108,68.539795 141.613037,74.587547 135.078247,87.156288 
	C128.612244,99.592728 127.825928,112.941360 129.538269,126.560287 
	C130.136230,131.316055 126.273178,136.314590 121.174690,136.970963 
	C115.309952,137.725983 112.363197,135.416611 111.847725,129.503540 
	C111.631058,127.018242 111.605408,124.510651 111.603821,122.013123 
	C111.587440,96.181023 111.593719,70.348892 111.593704,44.516777 
	C111.593704,42.709969 111.593704,40.903164 111.593704,38.456726 
	C103.465836,39.581398 95.842400,40.636269 88.127602,41.703781 
	C88.127602,68.181595 88.202072,94.007904 88.012489,119.832268 
	C87.993515,122.416550 86.973648,125.459480 85.390541,127.487114 
	C77.780121,137.234497 67.641182,141.158142 55.399948,139.081482 
	C43.894581,137.129639 38.622501,128.748947 36.089001,118.607330 
	C30.549337,96.432014 31.613768,74.352013 39.100525,52.749916 
	C40.473419,48.788609 42.948357,44.900406 45.824387,41.830894 
	C52.541630,34.661770 62.602585,37.600986 65.084717,47.100948 
	C66.614426,52.955643 65.020096,58.120090 61.302494,62.968636 
	C65.564438,66.562325 70.165459,68.266411 75.240120,66.029892 
	C80.017609,63.924355 80.004410,59.189243 79.908226,54.828033 
	C79.686417,44.770752 73.677086,36.743198 63.760456,32.958511 
	C43.508450,25.229326 23.757879,32.840298 14.644665,53.048145 
	C4.100302,76.429459 3.643639,100.920364 10.681599,125.273071 
	C16.188478,144.327927 30.299227,154.135529 50.104179,154.347458 
	C66.089142,154.518539 79.304039,148.822540 88.691414,134.869064 
	C90.808456,144.690582 95.537514,151.211151 105.703102,152.489166 
	C117.797424,154.009674 127.252998,150.132919 132.715088,140.536057 
	C137.860596,144.064667 142.513641,148.770676 148.136719,150.837112 
	C167.616959,157.995895 184.976028,147.118622 188.878342,125.736725 
	C190.209457,118.443100 190.506241,110.960709 191.282364,103.499916 
	C194.405289,102.645607 197.547760,101.785957 200.077591,101.093903 
	C200.077591,107.450371 199.858353,113.736565 200.119797,120.002701 
	C200.830185,137.028702 208.498871,148.412338 221.901413,151.573593 
	C237.689590,155.297546 251.208893,151.211838 261.744965,138.487625 
	C262.599548,137.455536 263.491333,136.454224 265.094177,134.592636 
	C265.094177,141.082321 265.094177,146.345261 265.094177,151.707718 
	C272.846344,151.707718 280.263672,151.707718 288.104004,151.707718 
	C288.104004,140.035477 288.104004,128.579575 288.129211,116.250252 
M689.976196,137.440918 
	C707.467224,106.901611 707.978271,76.103882 689.066956,46.362770 
	C670.204773,16.698807 641.905090,4.179476 607.199280,7.213246 
	C557.201904,11.583719 521.135498,62.826050 533.620483,111.908813 
	C542.672302,147.494431 565.853149,170.125916 601.881531,176.506973 
	C638.765991,183.039688 668.369263,169.171890 689.976196,137.440918 
M427.452271,70.864761 
	C422.834045,70.864761 418.215820,70.864761 413.444672,70.864761 
	C413.444672,98.081589 413.444672,124.803337 413.444672,151.599548 
	C421.264069,151.599548 428.809021,151.599548 436.686218,151.599548 
	C436.686218,135.135147 436.532166,118.998940 436.790619,102.869339 
	C436.858246,98.646660 437.814178,94.320694 439.090393,90.271698 
	C440.130798,86.970848 442.945343,84.033150 446.608215,85.244919 
	C449.152740,86.086731 452.145569,88.735527 452.882294,91.193275 
	C454.236237,95.710068 454.310059,100.672272 454.493042,105.465012 
	C454.829132,114.270126 454.221802,123.155624 455.164215,131.882736 
	C456.546875,144.686905 463.931976,151.750122 475.451721,152.801483 
	C486.842102,153.841034 494.690704,148.389313 498.882080,136.129715 
	C500.294678,131.997940 501.015411,127.629654 502.124390,123.073578 
	C499.445465,123.073578 497.481140,123.073578 495.494568,123.073578 
	C494.150391,126.465042 493.055634,129.939331 491.428772,133.143448 
	C489.589966,136.764938 486.085175,137.347656 482.393860,136.939957 
	C478.865631,136.550278 477.047058,134.294739 476.791260,130.952423 
	C476.411469,125.990173 476.186432,121.008690 476.111725,116.032150 
	C475.986908,107.719612 476.552704,99.362236 475.880646,91.100777 
	C474.962311,79.811882 468.724243,72.775429 459.153320,70.766037 
	C450.542053,68.958107 443.148010,71.098961 436.890961,78.343925 
	C436.750031,75.520760 436.646332,73.443413 436.517609,70.864761 
	C433.667236,70.864761 431.049286,70.864761 427.452271,70.864761 
M394.338379,151.924774 
	C398.110809,152.703110 398.166870,150.435394 398.162537,147.626511 
	C398.104553,109.827835 398.125946,72.029030 398.112213,34.230267 
	C398.111816,33.119549 397.942474,32.008888 397.756287,29.725426 
	C390.916199,30.519197 384.173309,30.497944 377.891998,32.190140 
	C362.619537,36.304562 350.048798,44.425827 344.668640,60.211792 
	C339.119965,76.492172 347.819489,88.786758 363.535797,87.727989 
	C352.537323,68.638351 361.574951,45.773121 375.131897,42.848541 
	C375.131897,79.154114 375.131897,115.385117 375.131897,151.924805 
	C381.440948,151.924805 387.405212,151.924805 394.338379,151.924774 
z"/>
<path fill="#FFFFFF" opacity="1.000000" stroke="none" 
	d="
M288.116608,116.686966 
	C288.104004,128.579575 288.104004,140.035477 288.104004,151.707718 
	C280.263672,151.707718 272.846344,151.707718 265.094177,151.707718 
	C265.094177,146.345261 265.094177,141.082321 265.094177,134.592636 
	C263.491333,136.454224 262.599548,137.455536 261.744965,138.487625 
	C251.208893,151.211838 237.689590,155.297546 221.901413,151.573593 
	C208.498871,148.412338 200.830185,137.028702 200.119797,120.002701 
	C199.858353,113.736565 200.077591,107.450371 200.077591,101.093903 
	C197.547760,101.785957 194.405289,102.645607 191.282364,103.499916 
	C190.506241,110.960709 190.209457,118.443100 188.878342,125.736725 
	C184.976028,147.118622 167.616959,157.995895 148.136719,150.837112 
	C142.513641,148.770676 137.860596,144.064667 132.715088,140.536057 
	C127.252998,150.132919 117.797424,154.009674 105.703102,152.489166 
	C95.537514,151.211151 90.808456,144.690582 88.691414,134.869064 
	C79.304039,148.822540 66.089142,154.518539 50.104179,154.347458 
	C30.299227,154.135529 16.188478,144.327927 10.681599,125.273071 
	C3.643639,100.920364 4.100302,76.429459 14.644665,53.048145 
	C23.757879,32.840298 43.508450,25.229326 63.760456,32.958511 
	C73.677086,36.743198 79.686417,44.770752 79.908226,54.828033 
	C80.004410,59.189243 80.017609,63.924355 75.240120,66.029892 
	C70.165459,68.266411 65.564438,66.562325 61.302494,62.968636 
	C65.020096,58.120090 66.614426,52.955643 65.084717,47.100948 
	C62.602585,37.600986 52.541630,34.661770 45.824387,41.830894 
	C42.948357,44.900406 40.473419,48.788609 39.100525,52.749916 
	C31.613768,74.352013 30.549337,96.432014 36.089001,118.607330 
	C38.622501,128.748947 43.894581,137.129639 55.399948,139.081482 
	C67.641182,141.158142 77.780121,137.234497 85.390541,127.487114 
	C86.973648,125.459480 87.993515,122.416550 88.012489,119.832268 
	C88.202072,94.007904 88.127602,68.181595 88.127602,41.703781 
	C95.842400,40.636269 103.465836,39.581398 111.593704,38.456726 
	C111.593704,40.903164 111.593704,42.709969 111.593704,44.516777 
	C111.593719,70.348892 111.587440,96.181023 111.603821,122.013123 
	C111.605408,124.510651 111.631058,127.018242 111.847725,129.503540 
	C112.363197,135.416611 115.309952,137.725983 121.174690,136.970963 
	C126.273178,136.314590 130.136230,131.316055 129.538269,126.560287 
	C127.825928,112.941360 128.612244,99.592728 135.078247,87.156288 
	C141.613037,74.587547 153.332108,68.539795 167.312805,70.158203 
	C178.818451,71.490097 185.922150,78.198494 188.873291,90.529579 
	C189.253845,92.119659 189.598969,93.718224 190.039703,95.662262 
	C197.086487,94.713005 202.948990,93.858284 206.589935,86.201874 
	C213.043442,72.631073 227.365234,67.018959 241.522202,71.047531 
	C251.132126,73.782173 256.596283,83.069809 254.050079,92.341690 
	C252.619858,97.549789 248.223007,99.537270 243.635071,96.773773 
	C242.713501,96.218674 242.278183,94.449409 242.086060,93.169777 
	C241.595428,89.901855 241.878418,86.437454 240.924423,83.337044 
	C239.214966,77.781372 233.681854,76.956612 230.236938,81.643646 
	C228.592606,83.880859 227.238846,86.512642 226.458679,89.172531 
	C223.139908,100.487236 221.999466,112.071190 223.709229,123.765869 
	C225.578171,136.549210 232.501068,141.329102 245.075226,138.753616 
	C254.079849,136.909271 259.799957,130.716125 264.306213,123.260971 
	C265.071136,121.995445 264.860168,120.055077 264.862274,118.426178 
	C264.893250,94.760674 264.883606,71.095100 264.883636,47.429546 
	C264.883636,45.620022 264.883606,43.810501 264.883606,41.654743 
	C272.571960,40.591038 279.958832,39.569050 287.879272,38.473236 
	C287.879272,57.244743 287.879272,75.762802 287.879272,95.697014 
	C294.816803,89.144775 301.432281,84.034676 306.591431,77.732391 
	C312.860657,70.074089 320.495789,70.256149 329.686310,71.280342 
	C320.740540,78.571693 312.366608,85.396927 303.613281,92.531418 
	C307.850555,93.061890 311.446960,93.307823 314.958038,93.991806 
	C323.804352,95.715126 329.649780,102.338814 330.025330,111.376198 
	C330.260071,117.025230 329.890930,122.700233 329.766327,128.363007 
	C329.680389,132.268005 330.189758,135.807617 334.831024,136.865143 
	C339.920013,138.024658 344.067841,136.218414 346.173676,131.873505 
	C346.748413,130.687607 347.133240,129.396591 347.493835,128.122284 
	C349.001892,122.792961 348.986359,122.788567 355.292236,123.152229 
	C354.354187,132.366364 352.479340,141.284439 345.469604,147.791107 
	C338.361267,154.389252 329.605103,154.025009 321.038025,151.077133 
	C312.759003,148.228348 308.663391,141.759979 308.030243,133.264618 
	C307.647522,128.129745 308.060577,122.939285 308.014740,117.774704 
	C307.947144,110.163368 306.245514,107.031670 301.856140,106.151260 
	C296.091278,104.994942 291.594177,107.803108 288.733948,114.369629 
	C288.472290,114.970337 288.328003,115.622169 288.116608,116.686966 
M152.782257,118.386513 
	C153.257141,121.829918 153.432495,125.349098 154.279907,128.698242 
	C155.434311,133.260605 157.758957,137.211899 163.140701,137.476852 
	C168.438934,137.737686 171.861755,134.292648 172.931244,129.792267 
	C174.756699,122.110863 175.565399,114.183952 176.670532,106.341759 
	C176.772781,105.616341 176.140976,104.492302 175.504364,104.003578 
	C169.130798,99.110603 168.626175,94.092400 174.108582,87.922150 
	C172.826141,83.792023 170.794067,80.215546 165.872620,79.930969 
	C161.242813,79.663261 159.298416,83.256210 157.570801,86.711861 
	C156.540512,88.772682 155.458893,90.978020 155.182571,93.215019 
	C154.188797,101.260063 153.527710,109.346199 152.782257,118.386513 
z"/>
<path fill="#FFFFFF" opacity="1.000000" stroke="none" 
	d="
M689.780151,137.746918 
	C668.369263,169.171890 638.765991,183.039688 601.881531,176.506973 
	C565.853149,170.125916 542.672302,147.494431 533.620483,111.908813 
	C521.135498,62.826050 557.201904,11.583719 607.199280,7.213246 
	C641.905090,4.179476 670.204773,16.698807 689.066956,46.362770 
	C707.978271,76.103882 707.467224,106.901611 689.780151,137.746918 
M644.962524,30.430305 
	C631.282104,24.401419 617.126709,23.008745 602.497253,26.002960 
	C567.265991,33.213760 543.941345,68.151474 550.114563,104.503662 
	C556.090027,139.690689 591.104004,165.092331 626.251953,159.739197 
	C655.922729,155.220261 679.672424,132.275864 683.964539,103.983566 
	C688.711914,72.690132 673.921692,44.471333 644.962524,30.430305 
z"/>
<path fill="#FFFFFF" opacity="1.000000" stroke="none" 
	d="
M427.941803,70.864761 
	C431.049286,70.864761 433.667236,70.864761 436.517609,70.864761 
	C436.646332,73.443413 436.750031,75.520760 436.890961,78.343925 
	C443.148010,71.098961 450.542053,68.958107 459.153320,70.766037 
	C468.724243,72.775429 474.962311,79.811882 475.880646,91.100777 
	C476.552704,99.362236 475.986908,107.719612 476.111725,116.032150 
	C476.186432,121.008690 476.411469,125.990173 476.791260,130.952423 
	C477.047058,134.294739 478.865631,136.550278 482.393860,136.939957 
	C486.085175,137.347656 489.589966,136.764938 491.428772,133.143448 
	C493.055634,129.939331 494.150391,126.465042 495.494568,123.073578 
	C497.481140,123.073578 499.445465,123.073578 502.124390,123.073578 
	C501.015411,127.629654 500.294678,131.997940 498.882080,136.129715 
	C494.690704,148.389313 486.842102,153.841034 475.451721,152.801483 
	C463.931976,151.750122 456.546875,144.686905 455.164215,131.882736 
	C454.221802,123.155624 454.829132,114.270126 454.493042,105.465012 
	C454.310059,100.672272 454.236237,95.710068 452.882294,91.193275 
	C452.145569,88.735527 449.152740,86.086731 446.608215,85.244919 
	C442.945343,84.033150 440.130798,86.970848 439.090393,90.271698 
	C437.814178,94.320694 436.858246,98.646660 436.790619,102.869339 
	C436.532166,118.998940 436.686218,135.135147 436.686218,151.599548 
	C428.809021,151.599548 421.264069,151.599548 413.444672,151.599548 
	C413.444672,124.803337 413.444672,98.081589 413.444672,70.864761 
	C418.215820,70.864761 422.834045,70.864761 427.941803,70.864761 
z"/>
<path fill="#FFFFFF" opacity="1.000000" stroke="none" 
	d="
M393.853943,151.924789 
	C387.405212,151.924805 381.440948,151.924805 375.131897,151.924805 
	C375.131897,115.385117 375.131897,79.154114 375.131897,42.848541 
	C361.574951,45.773121 352.537323,68.638351 363.535797,87.727989 
	C347.819489,88.786758 339.119965,76.492172 344.668640,60.211792 
	C350.048798,44.425827 362.619537,36.304562 377.891998,32.190140 
	C384.173309,30.497944 390.916199,30.519197 397.756287,29.725426 
	C397.942474,32.008888 398.111816,33.119549 398.112213,34.230267 
	C398.125946,72.029030 398.104553,109.827835 398.162537,147.626511 
	C398.166870,150.435394 398.110809,152.703110 393.853943,151.924789 
z"/>
<path fill="transparent" opacity="1.000000" stroke="none" 
	d="
M152.761581,117.901657 
	C153.527710,109.346199 154.188797,101.260063 155.182571,93.215019 
	C155.458893,90.978020 156.540512,88.772682 157.570801,86.711861 
	C159.298416,83.256210 161.242813,79.663261 165.872620,79.930969 
	C170.794067,80.215546 172.826141,83.792023 174.108582,87.922150 
	C168.626175,94.092400 169.130798,99.110603 175.504364,104.003578 
	C176.140976,104.492302 176.772781,105.616341 176.670532,106.341759 
	C175.565399,114.183952 174.756699,122.110863 172.931244,129.792267 
	C171.861755,134.292648 168.438934,137.737686 163.140701,137.476852 
	C157.758957,137.211899 155.434311,133.260605 154.279907,128.698242 
	C153.432495,125.349098 153.257141,121.829918 152.761581,117.901657 
z"/>
<path fill="transparent" opacity="1.000000" stroke="none" 
	d="
M645.289307,30.623783 
	C673.921692,44.471333 688.711914,72.690132 683.964539,103.983566 
	C679.672424,132.275864 655.922729,155.220261 626.251953,159.739197 
	C591.104004,165.092331 556.090027,139.690689 550.114563,104.503662 
	C543.941345,68.151474 567.265991,33.213760 602.497253,26.002960 
	C617.126709,23.008745 631.282104,24.401419 645.289307,30.623783 
M624.710266,88.424240 
	C623.910767,86.973473 622.452271,85.537918 622.418396,84.069481 
	C622.191711,74.249756 622.429688,64.419052 622.187317,54.600044 
	C622.038696,48.575890 617.242004,44.154945 611.593323,44.195663 
	C605.900208,44.236702 601.082642,48.709599 601.039551,54.685749 
	C600.908691,72.834694 601.022156,90.985435 601.071289,109.135391 
	C601.071960,109.377838 601.475952,109.619194 601.785095,109.965775 
	C620.506042,109.965775 639.316833,109.971840 658.127686,109.961670 
	C663.060608,109.959007 666.877869,107.958412 668.886902,103.330170 
	C672.082092,95.969299 666.929565,88.681664 658.148987,88.494392 
	C647.329651,88.263649 636.501831,88.432938 624.710266,88.424240 
z"/>
<path fill="#FFFFFF" opacity="1.000000" stroke="none" 
	d="
M625.193970,88.426788 
	C636.501831,88.432938 647.329651,88.263649 658.148987,88.494392 
	C666.929565,88.681664 672.082092,95.969299 668.886902,103.330170 
	C666.877869,107.958412 663.060608,109.959007 658.127686,109.961670 
	C639.316833,109.971840 620.506042,109.965775 601.785095,109.965775 
	C601.475952,109.619194 601.071960,109.377838 601.071289,109.135391 
	C601.022156,90.985435 600.908691,72.834694 601.039551,54.685749 
	C601.082642,48.709599 605.900208,44.236702 611.593323,44.195663 
	C617.242004,44.154945 622.038696,48.575890 622.187317,54.600044 
	C622.429688,64.419052 622.191711,74.249756 622.418396,84.069481 
	C622.452271,85.537918 623.910767,86.973473 625.193970,88.426788 
z"/>
</svg>